<?xml version="1.0" standalone="no"?>
<!DOCTYPE svg PUBLIC "-//W3C//DTD SVG 20010904//EN"
 "http://www.w3.org/TR/2001/REC-SVG-20010904/DTD/svg10.dtd">
<svg version="1.0" xmlns="http://www.w3.org/2000/svg"
 width="670.000000pt" height="373.000000pt" viewBox="0 0 670.000000 373.000000"
 preserveAspectRatio="xMidYMid meet">

<g transform="translate(0.000000,373.000000) scale(0.100000,-0.100000)"
fill="#FFFFFF" stroke="none">
<path style="fill: #FFFFF" d="M3090 3515 c-179 -38 -226 -53 -344 -111 -110 -54 -176 -104 -266
-201 -67 -72 -160 -210 -160 -237 0 -15 -21 -26 -51 -26 -25 0 -92 -35 -157
-83 -34 -24 -69 -63 -96 -105 -80 -127 -76 -85 -76 -830 l0 -662 -23 -38 c-66
-106 -107 -283 -107 -460 0 -90 3 -110 25 -157 80 -168 398 -306 840 -364 326
-43 324 -43 716 -39 231 3 416 9 464 17 44 6 118 16 165 22 88 11 189 29 300
56 292 70 483 178 545 308 22 47 25 67 25 157 0 177 -41 354 -107 460 l-23 38
0 665 c0 585 -2 670 -16 707 -19 51 -47 111 -54 118 -3 3 -16 20 -29 38 -39
55 -185 152 -230 152 -32 0 -51 11 -51 30 0 11 -4 21 -9 24 -5 3 -19 25 -31
48 -46 90 -151 207 -256 286 -111 83 -298 155 -483 186 -118 20 -417 20 -511
1z m447 -115 c159 -21 315 -69 393 -121 8 -5 23 -12 33 -15 9 -4 17 -10 17
-14 0 -5 9 -12 21 -15 58 -19 205 -189 264 -304 120 -238 149 -586 74 -891
-19 -78 -77 -222 -116 -289 -46 -79 -154 -196 -203 -221 -68 -35 -125 -110
-195 -257 -36 -76 -71 -148 -77 -161 l-11 -22 -401 2 -401 3 -27 55 c-15 30
-53 108 -84 172 -58 122 -80 149 -204 258 -102 89 -165 187 -222 345 -91 250
-103 558 -33 820 84 315 304 534 623 621 147 40 387 55 549 34z m-1307 -690
c-80 -365 -15 -786 163 -1057 26 -39 54 -76 62 -83 22 -18 18 -30 -9 -30 -54
0 -257 -79 -344 -134 l-43 -27 3 598 c3 661 1 638 69 727 29 38 107 101 115
93 2 -1 -6 -41 -16 -87z m2312 26 c21 -21 45 -51 55 -69 41 -80 43 -109 43
-710 l0 -577 -42 27 c-87 54 -290 133 -344 133 -27 0 -31 12 -9 30 30 25 110
157 147 245 121 277 146 673 61 968 -4 17 -3 17 24 4 15 -8 45 -31 65 -51z
m-1904 -1338 c17 -18 62 -98 100 -178 l69 -145 -38 -37 c-21 -20 -42 -54 -48
-75 -7 -23 -11 -153 -11 -322 l0 -283 -32 6 c-18 4 -71 13 -117 21 -296 52
-537 149 -597 240 -27 41 -32 87 -23 221 9 150 34 239 94 328 86 130 335 249
531 255 33 1 46 -5 72 -31z m1610 17 c156 -37 338 -133 396 -209 74 -98 104
-194 115 -374 9 -131 2 -202 -19 -202 -6 0 -10 -7 -10 -15 0 -8 -4 -15 -8 -15
-5 0 -17 -8 -28 -18 -75 -70 -311 -154 -555 -197 -46 -8 -99 -17 -116 -21
l-33 -6 0 283 c0 162 -4 300 -10 321 -10 36 -45 79 -87 108 l-21 15 43 94 c55
119 107 200 148 229 38 26 93 29 185 7z m-425 -457 c46 -24 46 -29 47 -325 l0
-283 -22 -4 c-47 -10 -359 -26 -498 -26 -139 0 -451 16 -497 26 l-23 4 0 283
c1 294 1 300 45 325 29 16 917 17 948 0z"/>
<path style="fill: #0ff8fc98;" d="M3120 3015 c-8 -2 -58 -9 -110 -15 -149 -19 -287 -62 -365 -113 -53
-35 -125 -111 -160 -167 -18 -30 -46 -98 -61 -150 -26 -88 -28 -109 -28 -275
-1 -195 7 -245 65 -388 93 -232 294 -420 529 -497 122 -39 199 -50 360 -50
161 0 239 11 360 51 248 81 451 277 539 521 52 143 55 165 55 358 0 173 -2
191 -28 280 -52 178 -150 294 -306 360 -147 62 -279 81 -585 85 -137 2 -257 2
-265 0z m477 -286 c22 -43 -6 -89 -56 -89 -73 0 -82 99 -11 122 24 8 54 -7 67
-33z m-815 -390 c82 -36 132 -34 206 7 63 35 124 33 169 -6 18 -16 44 -30 56
-30 13 0 34 -13 49 -30 39 -45 91 -45 197 0 39 17 82 30 96 30 14 0 58 14 97
30 88 37 136 39 176 5 53 -44 120 -41 161 9 22 27 92 20 137 -12 63 -46 70
-67 55 -171 -49 -348 -252 -577 -591 -668 -92 -24 -387 -24 -480 0 -340 90
-543 320 -591 670 -14 103 -7 123 55 169 54 39 115 38 208 -3z"/>
</g>
</svg>
